<?xml version="1.0" encoding="UTF-8" standalone="no"?>
<!-- Created with Inkscape (http://www.inkscape.org/) -->

<svg
   width="66.103996mm"
   height="66.103996mm"
   viewBox="0 0 66.103995 66.103996"
   version="1.1"
   id="svg1"
   inkscape:export-filename="tj_dev_club.png"
   inkscape:export-xdpi="279.04999"
   inkscape:export-ydpi="279.04999"
   xml:space="preserve"
   inkscape:version="1.4 (1:1.4+202410161351+e7c3feb100)"
   sodipodi:docname="dev_club_dark.svg"
   xmlns:inkscape="http://www.inkscape.org/namespaces/inkscape"
   xmlns:sodipodi="http://sodipodi.sourceforge.net/DTD/sodipodi-0.dtd"
   xmlns="http://www.w3.org/2000/svg"
   xmlns:svg="http://www.w3.org/2000/svg"><sodipodi:namedview
   id="namedview1"
   pagecolor="#505050"
   bordercolor="#eeeeee"
   borderopacity="1"
   inkscape:showpageshadow="0"
   inkscape:pageopacity="0"
   inkscape:pagecheckerboard="0"
   inkscape:deskcolor="#d1d1d1"
   inkscape:document-units="mm"
   inkscape:export-bgcolor="#ffffff00"
   inkscape:zoom="1.8163778"
   inkscape:cx="91.665953"
   inkscape:cy="126.07509"
   inkscape:window-width="1159"
   inkscape:window-height="752"
   inkscape:window-x="0"
   inkscape:window-y="0"
   inkscape:window-maximized="0"
   inkscape:current-layer="layer2"
   showgrid="false"
   showguides="false" /><defs
   id="defs1"><inkscape:path-effect
     effect="fillet_chamfer"
     id="path-effect1"
     is_visible="true"
     lpeversion="1"
     nodesatellites_param="F,0,0,1,0,4.7118944,0,1 @ F,0,0,1,0,5.0561593,0,1 @ F,0,0,1,0,0,0,1 @ F,0,0,1,0,0,0,1"
     radius="0"
     unit="px"
     method="auto"
     mode="F"
     chamfer_steps="1"
     flexible="false"
     use_knot_distance="true"
     apply_no_radius="true"
     apply_with_radius="true"
     only_selected="false"
     hide_knots="false" /><clipPath
     clipPathUnits="userSpaceOnUse"
     id="clipPath18"><rect
       style="fill:#7779dc;fill-opacity:0.480516;stroke:#ffffff;stroke-width:1;stroke-linecap:round;stroke-linejoin:miter;stroke-dasharray:none;stroke-opacity:0;paint-order:markers fill stroke"
       id="rect19"
       width="53.189743"
       height="59.589722"
       x="109.44558"
       y="179.7366"
       ry="0.87649143" /></clipPath></defs>
         
         
         
         
         
       
       
       
       
       
       <g
   inkscape:groupmode="layer"
   id="layer2"
   class="main"
   inkscape:label="Main"><path
     style="color:#000000;fill:#ffffff;stroke-width:5;stroke-linecap:round;fill-opacity:1;stroke-dasharray:none"
     d="m 13.374471,17.258183 a 1.2922014,1.2922039 0 0 0 -1.292957,1.291009 1.2922014,1.2922039 0 0 0 1.292957,1.292959 h 39.146078 a 1.2922014,1.2922039 0 0 0 1.292946,-1.292959 1.2922014,1.2922039 0 0 0 -1.292946,-1.291009 z"
     id="path13" /><path
     id="path14"
     style="color:#000000;fill:#ffffff;fill-opacity:1;stroke-width:5;stroke-linecap:round;stroke-dasharray:none"
     d="M 13.267407 17.254761 A 1.300149 1.3008095 0 0 0 12.636438 17.489889 A 1.300149 1.3008095 0 0 0 12.329997 19.302698 L 18.234546 27.627771 C 17.612656 29.320365 17.272847 31.147445 17.272847 33.052763 C 17.272847 41.751929 24.353088 48.830094 33.052246 48.830094 C 41.751405 48.830094 48.831128 41.751939 48.831128 33.052763 C 48.83113 31.146463 48.490897 29.318514 47.868396 27.625187 L 53.876298 19.312516 A 1.300149 1.3008095 0 0 0 53.58536 17.495573 A 1.300149 1.3008095 0 0 0 52.616943 17.265613 A 1.300149 1.3008095 0 0 0 51.769967 17.788578 L 46.588371 24.956616 C 43.827481 20.358644 38.793574 17.273881 33.052246 17.273881 C 27.315115 17.273881 22.283486 20.35389 19.521289 24.946281 L 14.450281 17.79633 A 1.300149 1.3008095 0 0 0 13.267407 17.254761 z M 31.759302 19.921265 L 31.759302 42.200525 L 21.178035 27.281539 C 23.136285 23.249103 27.085978 20.373147 31.759302 19.921265 z M 34.343123 19.921265 C 39.011748 20.372156 42.957473 23.242316 44.917672 27.268103 L 34.343123 41.897184 L 34.343123 19.921265 z M 45.952234 30.276705 C 46.142939 31.171736 46.245239 32.099747 46.245239 33.052763 C 46.24523 39.877778 41.099146 45.468274 34.464563 46.170308 L 45.952234 30.276705 z M 20.141406 30.315979 L 31.36036 46.135168 C 24.861222 45.307752 19.856678 39.781513 19.856669 33.052763 C 19.856669 32.113742 19.956063 31.198847 20.141406 30.315979 z " /><path
     id="path2"
     style="fill:#ffffff;stroke:#5ac1ea;stroke-width:4.80027;stroke-linecap:round;stroke-linejoin:round;stroke-dasharray:none;stroke-opacity:1"
     d="m 11.504192,27.299445 -6.8106586,6.81066 z m -6.8106586,6.876894 6.8106586,6.810659 z" /><path
     id="path2-2"
     style="fill:#ffffff;stroke:#5ac1ea;stroke-width:4.8;stroke-linecap:round;stroke-linejoin:round;stroke-dasharray:none;stroke-opacity:1"
     d="m 54.444122,27.319113 6.810659,6.81066 z m 6.810659,6.876894 -6.810659,6.810659 z" /></g><g
   inkscape:groupmode="layer"
   id="layer4"
   inkscape:label="TJ Logo"
   transform="translate(-89.101675,-157.95125)" /></svg>